# xmcd CD Database Entry
#
# Track frame offsets:
# 150
# 21080
# 36380
# 56245
# 73990
# 89927
# 107512
# 119110
# 133135
# 147320
# 161487
# 174820
# 190310
# 203907
# 219380
# 235825
# 256097
# 273615
# 292592
# 318040
#
# Disc length: 4349 seconds
#
# Revision: 1
# Processed by: cddbd v1.4PL0 Copyright (c) Steve Scherf et al.
# Submitted via: tcd 2.0b
#
DISCID=3310fb14
DTITLE=Nitty Gritty Dirt Band - Will the Circle Be Unbroken Vol. 2 (
DTITLE=The Circle Continures) 
DYEAR=1900
DGENRE=
TTITLE0=Life's Railway to Heaven (Johnny Cash)
TTITLE1=Grandpa Was a Carpenter (John Prine)
TTITLE2=When I Get my Rewards (Levon Helm)
TTITLE3=Don't You Hear Jerusalem Moan(Sam Bush - John Cowan and Bob Car
TTITLE3=penter - Jimmy Ibbotson
TTITLE4=Little Mountain Church House (Ricky Skaggs)
TTITLE5=And So It Goes (John Denver)
TTITLE6=When It's Gone (Jimmy Ibbotson)
TTITLE7=Mary Danced with Soldiers (Emmylou Harris)
TTITLE8=Riding Alone (Bob Carpenter and Emmylou Harris)
TTITLE9=I'm Sittin' on Top of the World (Jimmy Martin)
TTITLE10=Lovin' on the Side (Paulette Carlson)
TTITLE11=Lost River (Michael Martin Murphey)
TTITLE12=Bayou Jubilee (Jeff Hanna)
TTITLE13=Blues Berry Hill
TTITLE14=Turn of the Century (Jimmy Ibbotson - Jeff Hanna - Bob Carpen
TTITLE14=ter)
TTITLE15=One Step Over the Line (John Hiatt and Roseanne Cash)
TTITLE16=You Ain't Going Nowhere (Rodger McGuinn - Chris Hillman)
TTITLE17=The Valley Road (Bruce Hornsby)
TTITLE18=Will the Circle Be Unbroken (Johnny Cash - Roy Acuff - Ricky 
TTITLE18=Skaggs - Levon Helm and Emmylou Harris -  Jimmy Ibbotson, Jeff 
TTITLE18=Hanna and Bob Carpenter
TTITLE19=Amazing Grace
EXTD=
EXTT0=
EXTT1=
EXTT2=
EXTT3=
EXTT4=
EXTT5=
EXTT6=
EXTT7=
EXTT8=
EXTT9=
EXTT10=
EXTT11=
EXTT12=
EXTT13=
EXTT14=
EXTT15=
EXTT16=
EXTT17=
EXTT18=
EXTT19=
PLAYORDER=
